<?xml version="1.0" ?>
<svg xmlns="http://www.w3.org/2000/svg" width="100" height="100" version="1.1">
  <circle cx="5" cy="5" r="1" fill="#dddddd"/>
  <circle cx="5" cy="15" r="1" fill="#dddddd"/>
  <circle cx="5" cy="25" r="1" fill="#dddddd"/>
  <circle cx="5" cy="35" r="1" fill="#dddddd"/>
  <circle cx="5" cy="45" r="1" fill="#dddddd"/>
  <circle cx="5" cy="55" r="1" fill="#dddddd"/>
  <circle cx="5" cy="65" r="1" fill="#dddddd"/>
  <circle cx="5" cy="75" r="1" fill="#dddddd"/>
  <circle cx="5" cy="85" r="1" fill="#dddddd"/>
  <circle cx="5" cy="95" r="1" fill="#dddddd"/>
  <circle cx="15" cy="5" r="1" fill="#dddddd"/>
  <circle cx="15" cy="15" r="1" fill="#dddddd"/>
  <circle cx="15" cy="25" r="1" fill="#dddddd"/>
  <circle cx="15" cy="35" r="1" fill="#dddddd"/>
  <circle cx="15" cy="45" r="1" fill="#dddddd"/>
  <circle cx="15" cy="55" r="1" fill="#dddddd"/>
  <circle cx="15" cy="65" r="1" fill="#dddddd"/>
  <circle cx="15" cy="75" r="1" fill="#dddddd"/>
  <circle cx="15" cy="85" r="1" fill="#dddddd"/>
  <circle cx="15" cy="95" r="1" fill="#dddddd"/>
  <circle cx="25" cy="5" r="1" fill="#dddddd"/>
  <circle cx="25" cy="15" r="1" fill="#dddddd"/>
  <circle cx="25" cy="25" r="1" fill="#dddddd"/>
  <circle cx="25" cy="35" r="1" fill="#dddddd"/>
  <circle cx="25" cy="45" r="1" fill="#dddddd"/>
  <circle cx="25" cy="55" r="1" fill="#dddddd"/>
  <circle cx="25" cy="65" r="1" fill="#dddddd"/>
  <circle cx="25" cy="75" r="1" fill="#dddddd"/>
  <circle cx="25" cy="85" r="1" fill="#dddddd"/>
  <circle cx="25" cy="95" r="1" fill="#dddddd"/>
  <circle cx="35" cy="5" r="1" fill="#dddddd"/>
  <circle cx="35" cy="15" r="1" fill="#dddddd"/>
  <circle cx="35" cy="25" r="1" fill="#dddddd"/>
  <circle cx="35" cy="35" r="1" fill="#dddddd"/>
  <circle cx="35" cy="45" r="1" fill="#dddddd"/>
  <circle cx="35" cy="55" r="1" fill="#dddddd"/>
  <circle cx="35" cy="65" r="1" fill="#dddddd"/>
  <circle cx="35" cy="75" r="1" fill="#dddddd"/>
  <circle cx="35" cy="85" r="1" fill="#dddddd"/>
  <circle cx="35" cy="95" r="1" fill="#dddddd"/>
  <circle cx="45" cy="5" r="1" fill="#dddddd"/>
  <circle cx="45" cy="15" r="1" fill="#dddddd"/>
  <circle cx="45" cy="25" r="1" fill="#dddddd"/>
  <circle cx="45" cy="35" r="1" fill="#dddddd"/>
  <circle cx="45" cy="45" r="1" fill="#dddddd"/>
  <circle cx="45" cy="55" r="1" fill="#dddddd"/>
  <circle cx="45" cy="65" r="1" fill="#dddddd"/>
  <circle cx="45" cy="75" r="1" fill="#dddddd"/>
  <circle cx="45" cy="85" r="1" fill="#dddddd"/>
  <circle cx="45" cy="95" r="1" fill="#dddddd"/>
  <circle cx="55" cy="5" r="1" fill="#dddddd"/>
  <circle cx="55" cy="15" r="1" fill="#dddddd"/>
  <circle cx="55" cy="25" r="1" fill="#dddddd"/>
  <circle cx="55" cy="35" r="1" fill="#dddddd"/>
  <circle cx="55" cy="45" r="1" fill="#dddddd"/>
  <circle cx="55" cy="55" r="1" fill="#dddddd"/>
  <circle cx="55" cy="65" r="1" fill="#dddddd"/>
  <circle cx="55" cy="75" r="1" fill="#dddddd"/>
  <circle cx="55" cy="85" r="1" fill="#dddddd"/>
  <circle cx="55" cy="95" r="1" fill="#dddddd"/>
  <circle cx="65" cy="5" r="1" fill="#dddddd"/>
  <circle cx="65" cy="15" r="1" fill="#dddddd"/>
  <circle cx="65" cy="25" r="1" fill="#dddddd"/>
  <circle cx="65" cy="35" r="1" fill="#dddddd"/>
  <circle cx="65" cy="45" r="1" fill="#dddddd"/>
  <circle cx="65" cy="55" r="1" fill="#dddddd"/>
  <circle cx="65" cy="65" r="1" fill="#dddddd"/>
  <circle cx="65" cy="75" r="1" fill="#dddddd"/>
  <circle cx="65" cy="85" r="1" fill="#dddddd"/>
  <circle cx="65" cy="95" r="1" fill="#dddddd"/>
  <circle cx="75" cy="5" r="1" fill="#dddddd"/>
  <circle cx="75" cy="15" r="1" fill="#dddddd"/>
  <circle cx="75" cy="25" r="1" fill="#dddddd"/>
  <circle cx="75" cy="35" r="1" fill="#dddddd"/>
  <circle cx="75" cy="45" r="1" fill="#dddddd"/>
  <circle cx="75" cy="55" r="1" fill="#dddddd"/>
  <circle cx="75" cy="65" r="1" fill="#dddddd"/>
  <circle cx="75" cy="75" r="1" fill="#dddddd"/>
  <circle cx="75" cy="85" r="1" fill="#dddddd"/>
  <circle cx="75" cy="95" r="1" fill="#dddddd"/>
  <circle cx="85" cy="5" r="1" fill="#dddddd"/>
  <circle cx="85" cy="15" r="1" fill="#dddddd"/>
  <circle cx="85" cy="25" r="1" fill="#dddddd"/>
  <circle cx="85" cy="35" r="1" fill="#dddddd"/>
  <circle cx="85" cy="45" r="1" fill="#dddddd"/>
  <circle cx="85" cy="55" r="1" fill="#dddddd"/>
  <circle cx="85" cy="65" r="1" fill="#dddddd"/>
  <circle cx="85" cy="75" r="1" fill="#dddddd"/>
  <circle cx="85" cy="85" r="1" fill="#dddddd"/>
  <circle cx="85" cy="95" r="1" fill="#dddddd"/>
  <circle cx="95" cy="5" r="1" fill="#dddddd"/>
  <circle cx="95" cy="15" r="1" fill="#dddddd"/>
  <circle cx="95" cy="25" r="1" fill="#dddddd"/>
  <circle cx="95" cy="35" r="1" fill="#dddddd"/>
  <circle cx="95" cy="45" r="1" fill="#dddddd"/>
  <circle cx="95" cy="55" r="1" fill="#dddddd"/>
  <circle cx="95" cy="65" r="1" fill="#dddddd"/>
  <circle cx="95" cy="75" r="1" fill="#dddddd"/>
  <circle cx="95" cy="85" r="1" fill="#dddddd"/>
  <circle cx="95" cy="95" r="1" fill="#dddddd"/>
</svg>
